# xmcd
#
# Track frame offsets:
#	150
#	13528
#	32489
#	58560
#	88959
#	102116
#	131544
#	148849
#	165718
#	186694
#	205818
#	222210
#
# Disc length: 3235 seconds
#
# Revision: 0
# Processed by: cddbd v1.5.2PL0 Copyright (c) Steve Scherf et al.
# Submitted via: audiograbber 1.83.01
#
DISCID=ad0ca10c
DTITLE=Cdpool - Urban June 2010 CD2
DYEAR=2010
DGENRE=R&B
TTITLE0=Nas Ft Damien 'Jr Gong' Marley - As We Enter
TTITLE1=Kenny Thomas - Baby It's You
TTITLE2=Angie Stone Ft Young Nate - Free (Phatts Long Remix)
TTITLE3=Sumeet - You Belong To Me (MJ Cole Extended Mix)
TTITLE4=Tenny Ten - Swagnificent (Laurence 'Woo' Allen Remix)
TTITLE5=Hannah Liston - Explore Me (Naughty Raver Mix)
TTITLE6=Sonikz Ft Mr Miller - Wine Down Low (Original Mix)
TTITLE7=Jammer Ft Boy Better Know - 10 Man Roll
TTITLE8=Ladi6 - Walk Right Up
TTITLE9=Rain Ft Tippa Irie and Money May - Gun Gun Play
TTITLE10=Stock - Black and Blue
TTITLE11=Green Jade Ft Bold and Kelli-Leigh - Father's Day
EXTD=
EXTT0=
EXTT1=
EXTT2=
EXTT3=
EXTT4=
EXTT5=
EXTT6=
EXTT7=
EXTT8=
EXTT9=
EXTT10=
EXTT11=
PLAYORDER=
